{"title":"Sammy 2 Escape From Paradise DVDRip MaskedSubs.avi","uid":8992682,"size":376470564,"categoryP":"video","categoryS":"movies","magnet":"?xt=urn:btih:38ef53c292978fe32bfd8ed8f684067c488f1c88&amp;dn=Sammy+2+Escape+From+Paradise+DVDRip+MaskedSubs.avi&amp;tr=udp%3A%2F%2Ftracker.openbittorrent.com%3A80&amp;tr=udp%3A%2F%2Fopen.demonii.com%3A1337&amp;tr=udp%3A%2F%2Ftracker.coppersurfer.tk%3A6969&amp;tr=udp%3A%2F%2Fexodus.desync.com%3A6969","seeders":1,"leechers":0,"uploader":"globeplus","files":-1,"time":1380825851,"description":"Sammy 2 Escape From Paradise DVDRip MaskedSubs.avi\n\nFormat                                   : AVI\nFormat/Info                              : Audio Video Interleave\nFile size                                : 359 MiB\nDuration                                 : 1h 32mn\nOverall bit rate                         : 541 Kbps\nWriting application                      : Lavf52.57.1\n\nVideo\n\nID                                       : 0\nFormat                                   : xvid\nCodec ID                                 : xvid\nDuration                                 : 1h 32mn\nBit rate                                 : 400 Kbps\nWidth                                    : 320 pixels\nHeight                                   : 240 pixels\nDisplay aspect ratio                     : 4:3\nFrame rate                               : 25.000 fps\nBits/(Pixel*Frame)                       : 0.208\nStream size                              : 265 MiB (74%)\n\nAudio\n\nID                                       : 1\nFormat                                   : MPEG Audio\nFormat version                           : Version 1\nFormat profile                           : Layer 3\nMode                                     : Joint stereo\nMode extension                           : MS Stereo\nCodec ID                                 : 55\nCodec ID/Hint                            : MP3\nDuration                                 : 1h 32mn\nBit rate mode                            : Constant\nBit rate                                 : 128 Kbps\nChannel(s)                               : 2 channels\nSampling rate                            : 48.0 KHz\nCompression mode                         : Lossy\nStream size                              : 85.0 MiB (24%)\n\n\n\nPlot\n\nSammy and Ray are supervising the new green and leatherback hatchlings to sea. They are attacked by seagulls, who want the hatchlings for food. During the commotion, they are captured by poachers who drag them off to their boat.\n\nInside the boat's storage tank, they meet Lulu, a lobster with dissociative identity disorder and Jimbo a bug-eyed blobfish. The young green sea turtle Ella and her best leatherback friend Ricky are determined to save their grandpas with aid of Annabel and Margaret, the pink octopus mother and daughter.\n\n\n\n\n* enjoy ...","torrent":{"xt":"urn:btih:38ef53c292978fe32bfd8ed8f684067c488f1c88","amp;dn":"Sammy+2+Escape+From+Paradise+DVDRip+MaskedSubs.avi","amp;tr":["udp%3A%2F%2Ftracker.openbittorrent.com%3A80","udp%3A%2F%2Fopen.demonii.com%3A1337","udp%3A%2F%2Ftracker.coppersurfer.tk%3A6969","udp%3A%2F%2Fexodus.desync.com%3A6969"],"infoHash":"38ef53c292978fe32bfd8ed8f684067c488f1c88","infoHashBuffer":{"type":"Buffer","data":[56,239,83,194,146,151,143,227,43,253,142,216,246,132,6,124,72,143,28,136]},"announce":[],"urlList":[]}}